<svg width="32" height="20" viewBox="0 0 32 20" fill="none" xmlns="http://www.w3.org/2000/svg">
<g clip-path="url(#clip0)">
<path d="M29.929 0H2.729C1.62443 0 0.729004 0.895431 0.729004 2V18C0.729004 19.1046 1.62443 20 2.729 20H29.929C31.0336 20 31.929 19.1046 31.929 18V2C31.929 0.895431 31.0336 0 29.929 0Z" fill="#2557D6"/>
<path d="M0.739214 9.42758H2.23685L2.57453 8.64718H3.33053L3.66733 9.42758H6.61405V8.83098L6.87709 9.43018H8.40681L8.66985 8.8221V9.42762H15.9931L15.9897 8.14658H16.1313C16.2305 8.1499 16.2595 8.15866 16.2595 8.31562V9.42762H20.0471V9.12942C20.3526 9.28622 20.8278 9.42762 21.453 9.42762H23.0464L23.3874 8.64722H24.1434L24.4769 9.42762H27.5475V8.68634L28.0125 9.42762H30.4731V4.52722H28.0379V5.10594L27.6971 4.52722H25.1982V5.10594L24.8851 4.52722H21.5099C20.945 4.52722 20.4483 4.60278 20.0471 4.81334V4.52722H17.718V4.81334C17.4627 4.5963 17.1148 4.52722 16.728 4.52722H8.21837L7.64741 5.79286L7.06105 4.52722H4.38085V5.10594L4.08637 4.52722H1.80057L0.739014 6.85706V9.4275H0.739134L0.739214 9.42758ZM10.1928 8.72078H9.29425L9.29093 5.96902L8.01993 8.72074H7.25033L5.97601 5.96658V8.72074H4.19321L3.85641 7.93706H2.03133L1.69113 8.72074H0.739094L2.30873 5.20726H3.61109L5.10185 8.53382V5.20726H6.53249L7.67961 7.59074L8.73337 5.20726H10.1928L10.1928 8.72078ZM3.55681 7.20786L2.95689 5.80718L2.36029 7.20786H3.55681ZM13.7688 8.7207H10.8407V5.20722H13.7688V5.93886H11.7173V6.57218H13.7197V7.29238H11.7172V7.99406H13.7688L13.7688 8.7207ZM17.8952 6.1535C17.8952 6.71366 17.505 7.0031 17.2777 7.08998C17.4694 7.1599 17.6333 7.2835 17.7113 7.38586C17.835 7.56062 17.8564 7.7167 17.8564 8.0305V8.7207H16.9722L16.9689 8.27762C16.9689 8.06622 16.99 7.76218 16.8306 7.59314C16.7025 7.46954 16.5073 7.44274 16.1917 7.44274H15.2507V8.72074H14.3742V5.20722H16.3902C16.8382 5.20722 17.1683 5.21854 17.4516 5.3755C17.7289 5.53246 17.8952 5.76158 17.8952 6.1535ZM16.7873 6.67518C16.6667 6.74526 16.5243 6.74758 16.3536 6.74758H15.2888V5.96718H16.3681C16.5208 5.96718 16.6803 5.97374 16.7838 6.03054C16.8975 6.08174 16.9679 6.19066 16.9679 6.34114C16.9679 6.49474 16.9009 6.6183 16.7873 6.67518ZM19.301 8.7207H18.4067V5.20722H19.301V8.7207ZM29.6834 8.7207H28.4413L26.7799 6.08362V8.7207H24.9948L24.6537 7.93702H22.8329L22.502 8.7207H21.4761C21.0501 8.7207 20.5106 8.63042 20.2052 8.3321C19.8971 8.03378 19.7369 7.6297 19.7369 6.99078C19.7369 6.4697 19.8327 5.99334 20.2093 5.6169C20.4927 5.3365 20.9365 5.20722 21.5405 5.20722H22.3891V5.96006H21.5583C21.2384 5.96006 21.0577 6.00566 20.8838 6.16818C20.7344 6.31614 20.6319 6.59578 20.6319 6.96406C20.6319 7.34046 20.7099 7.6119 20.8728 7.78918C21.0077 7.92822 21.2531 7.97038 21.4837 7.97038H21.8774L23.1127 5.20734H24.4261L25.9102 8.53058V5.20738H27.2449L28.7856 7.65434V5.20738H29.6834V8.7207ZM24.3554 7.2079L23.7488 5.80722L23.1456 7.2079H24.3554ZM31.917 14.3311C31.7041 14.6294 31.2893 14.7806 30.7276 14.7806H29.0348V14.027H30.7207C30.8879 14.027 31.0049 14.0059 31.0754 13.94C31.142 13.8811 31.1796 13.7979 31.1791 13.7109C31.1791 13.6084 31.1365 13.5271 31.072 13.4784C31.0084 13.4247 30.9158 13.4004 30.7631 13.4004C29.9401 13.3736 28.9133 13.4247 28.9133 12.3127C28.9133 11.803 29.2511 11.2664 30.1709 11.2664H31.9169V10.5673H30.2946C29.8051 10.5673 29.4494 10.6797 29.1976 10.8542V10.5672H26.7982C26.4144 10.5672 25.964 10.6584 25.751 10.8542V10.5672H21.4662V10.8542C21.1253 10.6185 20.5499 10.5672 20.2843 10.5672H17.458V10.8542C17.1882 10.6039 16.5883 10.5672 16.2226 10.5672H13.0595L12.3357 11.3178L11.6578 10.5672H6.93257V15.4708H11.5686L12.3144 14.7083L13.017 15.4708L15.8747 15.4733V14.3197H16.1555C16.5347 14.3253 16.9819 14.3106 17.3765 14.1473V15.4707H19.7336V14.1926H19.8473C19.9924 14.1926 20.0067 14.1983 20.0067 14.3372V15.4705H27.1671C27.6216 15.4705 28.0968 15.3591 28.36 15.1567V15.4705H30.6312C31.1038 15.4705 31.5654 15.407 31.9166 15.2445L31.9167 14.3309L31.917 14.3311ZM17.7194 12.4449C17.7194 13.4211 16.9592 13.6227 16.1931 13.6227H15.0993V14.8015H13.3957L12.3163 13.638L11.1947 14.8015H7.72257V11.2871H11.248L12.3264 12.4391L13.4414 11.2871H16.2423C16.9378 11.2871 17.7194 11.4716 17.7194 12.4449ZM10.7506 14.0623H8.59549V13.3631H10.5199V12.646H8.59549V12.0071H10.7931L11.7518 13.0312L10.7506 14.0623ZM14.223 14.4647L12.8773 13.0331L14.223 11.6471V14.4647ZM16.2133 12.902H15.0806V12.0071H16.2235C16.5399 12.0071 16.7596 12.1307 16.7596 12.4379C16.7596 12.7419 16.5501 12.902 16.2133 12.902ZM22.1477 11.2871H25.0732V12.0139H23.0206V12.6528H25.0231V13.3699H23.0206V14.0691L25.0732 14.0723V14.8015H22.1476L22.1477 11.2871ZM21.0229 13.1683C21.2181 13.2373 21.3775 13.3609 21.4523 13.4633C21.5761 13.6349 21.594 13.795 21.5975 14.1047V14.8015H20.7175V14.3618C20.7175 14.1503 20.7387 13.8373 20.5758 13.6739C20.4477 13.548 20.2525 13.5179 19.9327 13.5179H18.9959V14.8015H18.1151V11.2871H20.1389C20.5826 11.2871 20.9058 11.3059 21.1935 11.453C21.4701 11.6131 21.6442 11.8325 21.6442 12.2334C21.6441 12.7943 21.2536 13.0805 21.0229 13.1683ZM20.5275 12.724C20.4103 12.7907 20.2653 12.7964 20.0948 12.7964H19.0299V12.0071H20.1092C20.2653 12.0071 20.4215 12.0103 20.5275 12.0706C20.6411 12.1275 20.7091 12.2365 20.7091 12.3867C20.7091 12.5371 20.6411 12.6582 20.5275 12.724ZM28.4403 12.9479C28.6111 13.117 28.7025 13.3307 28.7025 13.6924C28.7025 14.4484 28.2096 14.8013 27.3255 14.8013H25.6183V14.0477H27.3187C27.485 14.0477 27.6029 14.0267 27.6767 13.9607C27.737 13.9064 27.7803 13.8274 27.7803 13.7315C27.7803 13.6291 27.7335 13.5479 27.6733 13.4991C27.6063 13.4455 27.5138 13.4211 27.3611 13.4211C26.5414 13.3943 25.5149 13.4455 25.5149 12.3335C25.5149 11.8237 25.8491 11.2871 26.7681 11.2871H28.5253V12.0351H26.9174C26.7581 12.0351 26.6544 12.0409 26.5663 12.0986C26.4703 12.1555 26.4347 12.24 26.4347 12.3514C26.4347 12.4839 26.5161 12.5742 26.6265 12.6132C26.7189 12.644 26.8183 12.653 26.9675 12.653L27.4394 12.6653C27.9152 12.6763 28.2418 12.7552 28.4403 12.9479ZM31.9185 12.0071H30.321C30.1616 12.0071 30.0555 12.0128 29.9663 12.0705C29.8739 12.1275 29.8383 12.2119 29.8383 12.3234C29.8383 12.456 29.9163 12.5461 30.0299 12.5852C30.1224 12.616 30.2217 12.625 30.3677 12.625L30.8428 12.6372C31.3221 12.6485 31.6421 12.7275 31.8372 12.9201C31.8728 12.9469 31.8941 12.9769 31.9185 13.0071V12.0071H31.9185Z" fill="white"/>
</g>
<defs>
<clipPath id="clip0">
<rect width="31.2" height="20" fill="white" transform="translate(0.729004)"/>
</clipPath>
</defs>
</svg>
