<svg width="32" height="20" viewBox="0 0 32 20" fill="none" xmlns="http://www.w3.org/2000/svg">
<g clip-path="url(#clip0)">
<path d="M29.929 0H2.729C1.62443 0 0.729004 0.895431 0.729004 2V18C0.729004 19.1046 1.62443 20 2.729 20H29.929C31.0336 20 31.929 19.1046 31.929 18V2C31.929 0.895431 31.0336 0 29.929 0Z" fill="#16366F"/>
<path d="M18.6894 10C18.6894 13.9657 15.4746 17.18 11.509 17.18C7.54338 17.18 4.32898 13.9656 4.32898 10C4.32898 6.03469 7.54346 2.82001 11.509 2.82001C15.4745 2.82001 18.6894 6.03481 18.6894 10Z" fill="#D9222A"/>
<path d="M21.1487 2.81989C19.2935 2.81989 17.603 3.52373 16.3287 4.67853C16.0691 4.91409 15.8268 5.168 15.6037 5.43836H17.0543C17.253 5.67984 17.4358 5.93388 17.6017 6.19888H15.0563C14.9032 6.44372 14.7651 6.69765 14.6427 6.95921H18.0152C18.1309 7.20661 18.2324 7.46041 18.3192 7.71937H14.3387C14.255 7.96877 14.1854 8.22261 14.13 8.47973H18.5276C18.6352 8.97933 18.6894 9.48897 18.6892 10C18.6892 10.7974 18.5591 11.5646 18.3191 12.2808H14.3386C14.4252 12.54 14.5266 12.7938 14.6424 13.0412H18.0151C17.8925 13.3028 17.7543 13.5568 17.6012 13.8018H15.0562C15.2224 14.0669 15.4054 14.3209 15.6036 14.5616H17.0539C16.8311 14.8325 16.5887 15.0866 16.3287 15.3221C17.6031 16.4768 19.2934 17.1802 21.1487 17.1802C25.1142 17.1802 28.3291 13.9658 28.3291 10.0002C28.3291 6.03505 25.1143 2.82025 21.1487 2.82025" fill="#EE9F2D"/>
<path d="M27.3722 14.0023C27.3722 13.8743 27.4758 13.7703 27.604 13.7703C27.7322 13.7703 27.8358 13.8743 27.8358 14.0023C27.8358 14.1303 27.7322 14.2343 27.604 14.2343C27.4759 14.2343 27.3721 14.1304 27.3722 14.0023ZM27.604 14.1787C27.7014 14.1786 27.7803 14.0997 27.7803 14.0023C27.7803 13.905 27.7014 13.8262 27.6042 13.8262H27.604C27.5068 13.826 27.428 13.9047 27.4278 14.0019V14.0024C27.4277 14.0997 27.5065 14.1786 27.6038 14.1787C27.6038 14.1787 27.6039 14.1787 27.604 14.1787ZM27.5727 14.1043H27.5252V13.9005H27.6111C27.6291 13.9005 27.6474 13.9005 27.6633 13.9107C27.6798 13.9218 27.6892 13.9415 27.6892 13.9618C27.6892 13.9846 27.6757 14.0059 27.6538 14.0143L27.6913 14.1043H27.6387L27.6075 14.0236H27.5727V14.1043H27.5727ZM27.5727 13.9887H27.599C27.6088 13.9887 27.6192 13.9895 27.628 13.9847C27.6358 13.9797 27.6398 13.9703 27.6398 13.9613C27.6398 13.9535 27.635 13.9445 27.6283 13.9407C27.62 13.9354 27.6069 13.9366 27.598 13.9366H27.5727V13.9887ZM9.83267 10.7861C9.75087 10.7767 9.71487 10.7741 9.65867 10.7741C9.21687 10.7741 8.99319 10.9257 8.99319 11.2248C8.99319 11.4093 9.10239 11.5267 9.27267 11.5267C9.59019 11.5267 9.81903 11.2243 9.83267 10.7861ZM10.3995 12.106H9.75367L9.76851 11.7989C9.57151 12.0416 9.30867 12.1569 8.95151 12.1569C8.52903 12.1569 8.23935 11.8269 8.23935 11.3478C8.23935 10.6268 8.74319 10.2062 9.60803 10.2062C9.69635 10.2062 9.80967 10.2142 9.92567 10.2289C9.94987 10.1313 9.95619 10.0895 9.95619 10.0369C9.95619 9.84061 9.82035 9.76741 9.45619 9.76741C9.07487 9.76309 8.76035 9.85825 8.63119 9.90077C8.63935 9.85157 8.73919 9.23445 8.73919 9.23445C9.12767 9.12061 9.38387 9.07777 9.67219 9.07777C10.3415 9.07777 10.696 9.37825 10.6954 9.94625C10.6967 10.0985 10.6715 10.2863 10.6322 10.5331C10.5645 10.9623 10.4194 11.8818 10.3995 12.106ZM7.91319 12.106H7.13367L7.58019 9.30609L6.58319 12.106H6.05199L5.98639 9.32209L5.51703 12.106H4.78735L5.39687 8.46381H6.51767L6.58567 10.5025L7.26935 8.46381H8.51603L7.91319 12.106ZM22.1124 10.7861C22.0309 10.7767 21.9947 10.7741 21.9387 10.7741C21.4971 10.7741 21.2734 10.9257 21.2734 11.2248C21.2734 11.4093 21.3824 11.5267 21.5527 11.5267C21.8702 11.5267 22.0992 11.2243 22.1124 10.7861ZM22.6797 12.106H22.0339L22.0485 11.7989C21.8515 12.0416 21.5885 12.1569 21.2317 12.1569C20.8091 12.1569 20.5197 11.8269 20.5197 11.3478C20.5197 10.6268 21.0232 10.2062 21.8882 10.2062C21.9765 10.2062 22.0897 10.2142 22.2056 10.2289C22.2297 10.1313 22.2361 10.0895 22.2361 10.0369C22.2361 9.84061 22.1004 9.76741 21.7362 9.76741C21.3549 9.76309 21.0407 9.85825 20.911 9.90077C20.9192 9.85157 21.0194 9.23445 21.0194 9.23445C21.4079 9.12061 21.6639 9.07777 21.9519 9.07777C22.6215 9.07777 22.976 9.37825 22.9754 9.94625C22.9767 10.0985 22.9515 10.2863 22.9122 10.5331C22.8449 10.9623 22.6994 11.8818 22.6797 12.106ZM13.8641 12.061C13.6508 12.1282 13.4844 12.1569 13.3041 12.1569C12.9056 12.1569 12.6881 11.9279 12.6881 11.5063C12.6824 11.3755 12.7454 11.0311 12.7949 10.7168C12.8399 10.4401 13.1329 8.69557 13.1329 8.69557H13.9078L13.8173 9.14393H14.2853L14.1796 9.85577H13.7099C13.6199 10.4191 13.4917 11.1208 13.4902 11.2138C13.4902 11.3665 13.5717 11.4331 13.757 11.4331C13.8459 11.4331 13.9147 11.4241 13.9672 11.4051L13.8641 12.061ZM16.2398 12.037C15.9736 12.1183 15.7168 12.1577 15.4446 12.157C14.5773 12.1561 14.1251 11.7031 14.1251 10.8357C14.1251 9.82317 14.7003 9.07781 15.4811 9.07781C16.1199 9.07781 16.5279 9.49513 16.5279 10.1497C16.5279 10.3668 16.4999 10.5788 16.4324 10.8781H14.8894C14.8373 11.3078 15.1122 11.4868 15.5629 11.4868C15.8403 11.4868 16.0904 11.4296 16.3686 11.3003L16.2398 12.037ZM15.8043 10.281C15.8086 10.2193 15.8864 9.75229 15.4438 9.75229C15.1969 9.75229 15.0204 9.94045 14.9486 10.281H15.8043ZM10.8675 10.0803C10.8675 10.455 11.0491 10.7133 11.4611 10.9073C11.7768 11.0557 11.8256 11.0997 11.8256 11.2341C11.8256 11.4188 11.6864 11.5021 11.378 11.5021C11.1455 11.5021 10.9292 11.4659 10.6796 11.3853C10.6796 11.3853 10.5771 12.0381 10.5724 12.0694C10.7496 12.108 10.9076 12.1438 11.3836 12.157C12.2061 12.157 12.586 11.8438 12.586 11.167C12.586 10.76 12.427 10.5211 12.0365 10.3417C11.7096 10.1917 11.6721 10.1581 11.6721 10.0198C11.6721 9.85965 11.8016 9.77797 12.0536 9.77797C12.2066 9.77797 12.4156 9.79429 12.6136 9.82249L12.7246 9.13549C12.5228 9.10349 12.2168 9.07781 12.0386 9.07781C11.1666 9.07781 10.8648 9.53329 10.8675 10.0803ZM20.0311 9.15565C20.2476 9.15565 20.4494 9.21245 20.7276 9.35245L20.8551 8.56197C20.7409 8.51717 20.3389 8.25397 19.9984 8.25397C19.4768 8.25397 19.0358 8.51277 18.7256 8.93997C18.2732 8.79013 18.0873 9.09297 17.8593 9.39465L17.6568 9.44181C17.6721 9.34249 17.686 9.24381 17.6813 9.14397H16.9655C16.8677 10.0607 16.6943 10.9892 16.5586 11.907L16.5233 12.106H17.3031C17.4333 11.2603 17.5046 10.7188 17.548 10.3523L17.8416 10.189C17.8855 10.0258 18.0228 9.97065 18.2983 9.97729C18.2612 10.1776 18.2427 10.3809 18.243 10.5847C18.243 11.5537 18.7658 12.157 19.605 12.157C19.8211 12.157 20.0066 12.1285 20.2938 12.0507L20.431 11.2203C20.1726 11.3475 19.9606 11.4073 19.7686 11.4073C19.3155 11.4073 19.0413 11.0729 19.0413 10.52C19.0412 9.71797 19.4491 9.15565 20.0311 9.15565Z" fill="black"/>
<path d="M8.13744 11.8896H7.3578L7.8046 9.09005L6.8076 11.8896H6.27632L6.21064 9.10605L5.74132 11.8896H5.0116L5.62112 8.24789H6.74192L6.77344 10.5024L7.5296 8.24789H8.74028L8.13744 11.8896Z" fill="white"/>
<path d="M26.6299 8.46396L26.4572 9.51628C26.244 9.2358 26.015 9.0328 25.7127 9.0328C25.3193 9.0328 24.9613 9.33096 24.727 9.7698C24.4007 9.70212 24.0631 9.58728 24.0631 9.58728L24.063 9.58996C24.0893 9.34464 24.0998 9.19496 24.0975 9.14412H23.3815C23.284 10.0608 23.1107 10.9893 22.9752 11.9071L22.9395 12.1062H23.7191C23.8245 11.4223 23.9051 10.8544 23.9645 10.4041C24.2308 10.1634 24.3641 9.95344 24.6333 9.96744C24.5141 10.2557 24.4443 10.5876 24.4443 10.9281C24.4443 11.6686 24.819 12.1571 25.3857 12.1571C25.6713 12.1571 25.8905 12.0586 26.1043 11.8303L26.0678 12.1057H26.8051L27.3988 8.46396H26.6299ZM25.6551 11.4216C25.3898 11.4216 25.2558 11.2253 25.2558 10.8378C25.2558 10.2556 25.5067 9.84276 25.8603 9.84276C26.1281 9.84276 26.2731 10.0469 26.2731 10.4231C26.2731 11.0103 26.0183 11.4216 25.6551 11.4216Z" fill="black"/>
<path d="M10.0565 10.5705C9.97482 10.5611 9.93866 10.5585 9.88266 10.5585C9.44082 10.5585 9.2173 10.71 9.2173 11.0092C9.2173 11.1933 9.3265 11.3111 9.4965 11.3111C9.8143 11.311 10.0431 11.0087 10.0565 10.5705ZM10.6237 11.8898H9.97782L9.9925 11.5833C9.79566 11.8255 9.5325 11.9413 9.17566 11.9413C8.75298 11.9413 8.4635 11.6113 8.4635 11.1322C8.4635 10.4109 8.96714 9.9905 9.83214 9.9905C9.9205 9.9905 10.0338 9.9985 10.1497 10.0133C10.1738 9.91566 10.1801 9.87386 10.1801 9.82102C10.1801 9.6247 10.0445 9.55182 9.6803 9.55182C9.29882 9.5475 8.9845 9.6427 8.85514 9.6847C8.8633 9.63566 8.96314 9.01918 8.96314 9.01918C9.3515 8.90486 9.60798 8.86198 9.89598 8.86198C10.5655 8.86198 10.9201 9.1627 10.9195 9.73018C10.9207 9.88298 10.8953 10.0707 10.8561 10.3172C10.7887 10.7462 10.6433 11.6662 10.6237 11.8898ZM21.0789 8.34618L20.9512 9.13686C20.6732 8.99702 20.4712 8.94002 20.2549 8.94002C19.6729 8.94002 19.2649 9.50234 19.2649 10.3043C19.2649 10.8571 19.5392 11.1915 19.9922 11.1915C20.1842 11.1915 20.3961 11.1319 20.6544 11.0045L20.5176 11.8345C20.2302 11.9128 20.0449 11.9413 19.8285 11.9413C18.9895 11.9413 18.4665 11.338 18.4665 10.369C18.4665 9.06698 19.1889 8.15698 20.2221 8.15698C20.5623 8.15702 20.9645 8.30134 21.0789 8.34618ZM22.3365 10.5705C22.2549 10.5611 22.2189 10.5585 22.1627 10.5585C21.721 10.5585 21.4973 10.71 21.4973 11.0092C21.4973 11.1933 21.6065 11.3111 21.7767 11.3111C22.0942 11.311 22.3232 11.0087 22.3365 10.5705ZM22.9037 11.8898H22.2577L22.2725 11.5833C22.0755 11.8255 21.8125 11.9413 21.4557 11.9413C21.0332 11.9413 20.7435 11.6113 20.7435 11.1322C20.7435 10.4109 21.2473 9.9905 22.112 9.9905C22.2005 9.9905 22.3137 9.9985 22.4297 10.0133C22.4537 9.91566 22.4602 9.87386 22.4602 9.82102C22.4602 9.6247 22.3245 9.55182 21.9603 9.55182C21.579 9.5475 21.2645 9.6427 21.1352 9.6847C21.1433 9.63566 21.2433 9.01918 21.2433 9.01918C21.6317 8.90486 21.888 8.86198 22.176 8.86198C22.8457 8.86198 23.2001 9.1627 23.1993 9.73018C23.2007 9.88298 23.1755 10.0707 23.1361 10.3172C23.0689 10.7462 22.9232 11.6662 22.9037 11.8898ZM14.0881 11.845C13.8746 11.9122 13.7083 11.9413 13.5281 11.9413C13.1296 11.9413 12.9121 11.7123 12.9121 11.2907C12.9066 11.1595 12.9696 10.8155 13.0191 10.5012C13.0639 10.2241 13.3569 8.47986 13.3569 8.47986H14.1316L14.0413 8.92834H14.4389L14.3331 9.63986H13.9341C13.8441 10.2035 13.7156 10.9046 13.7143 10.9978C13.7143 11.151 13.7959 11.2171 13.9811 11.2171C14.0699 11.2171 14.1386 11.2085 14.1913 11.1895L14.0881 11.845ZM16.4638 11.8213C16.1978 11.9026 15.9406 11.9418 15.6686 11.9413C14.8012 11.9405 14.3491 11.4875 14.3491 10.62C14.3491 9.60718 14.9243 8.86202 15.7051 8.86202C16.3439 8.86202 16.7519 9.27918 16.7519 9.93402C16.7519 10.1513 16.7239 10.3633 16.6566 10.6625H15.1136C15.0614 11.0921 15.3364 11.2713 15.7871 11.2713C16.0643 11.2713 16.3146 11.214 16.5926 11.0843L16.4638 11.8213ZM16.0281 10.0649C16.0328 10.0033 16.1105 9.53618 15.6676 9.53618C15.4209 9.53618 15.2444 9.72486 15.1726 10.0649H16.0281ZM11.0913 9.8647C11.0913 10.2393 11.273 10.4973 11.685 10.6917C12.0006 10.84 12.0495 10.8842 12.0495 11.0185C12.0495 11.2032 11.9101 11.2865 11.602 11.2865C11.3693 11.2865 11.153 11.2502 10.9033 11.1697C10.9033 11.1697 10.8011 11.8225 10.7965 11.8537C10.9733 11.8924 11.1315 11.9277 11.6075 11.9413C12.4301 11.9413 12.8098 11.6282 12.8098 10.9515C12.8098 10.5443 12.651 10.3055 12.2603 10.126C11.9336 9.9757 11.8958 9.9427 11.8958 9.80418C11.8958 9.64418 12.0256 9.56186 12.2775 9.56186C12.4303 9.56186 12.6393 9.57866 12.8376 9.60686L12.9485 8.91966C12.7468 8.88766 12.4408 8.86202 12.2626 8.86202C11.3905 8.86202 11.0888 9.31718 11.0913 9.8647ZM27.0293 11.8898H26.2918L26.3285 11.6141C26.1146 11.8428 25.8955 11.9413 25.6098 11.9413C25.0431 11.9413 24.6686 11.4528 24.6686 10.7123C24.6686 9.72714 25.2495 8.89662 25.937 8.89662C26.2393 8.89662 26.4682 9.02014 26.6811 9.30046L26.8541 8.24814H27.623L27.0293 11.8898ZM25.8795 11.2055C26.2425 11.2055 26.4975 10.7942 26.4975 10.2074C26.4975 9.83118 26.3523 9.62702 26.0845 9.62702C25.731 9.62702 25.4799 10.0397 25.4799 10.622C25.4798 11.0095 25.6141 11.2055 25.8795 11.2055ZM23.6058 8.92834C23.5082 9.84502 23.3349 10.7735 23.1993 11.6909L23.1637 11.8898H23.9433C24.2221 10.0789 24.2896 9.72518 24.7268 9.7695C24.7965 9.39886 24.9261 9.07418 25.0228 8.91034C24.6963 8.84234 24.5139 9.02686 24.2753 9.37734C24.2941 9.22586 24.3286 9.0787 24.3218 8.92834H23.6058ZM17.189 8.92834C17.0911 9.84502 16.9178 10.7735 16.7823 11.6909L16.7468 11.8898H17.5268C17.8053 10.0789 17.8727 9.72518 18.3096 9.7695C18.3796 9.39886 18.5093 9.07418 18.6056 8.91034C18.2794 8.84234 18.0969 9.02686 17.8585 9.37734C17.8773 9.22586 17.9115 9.0787 17.9049 8.92834H17.189ZM27.3718 11.658C27.3718 11.5295 27.4756 11.426 27.6036 11.426C27.7315 11.4259 27.8353 11.5295 27.8354 11.6574V11.658C27.8354 11.786 27.7316 11.8898 27.6036 11.8898C27.4756 11.8898 27.3719 11.786 27.3718 11.658ZM27.6036 11.8342C27.7009 11.8342 27.7797 11.7554 27.7797 11.6581V11.6581C27.7799 11.5607 27.701 11.4818 27.6038 11.4817H27.6036C27.5062 11.4818 27.4273 11.5607 27.4273 11.6581C27.4274 11.7553 27.5063 11.8342 27.6036 11.8342ZM27.5723 11.7594H27.5247V11.556H27.6109C27.6287 11.556 27.6472 11.5563 27.6627 11.5662C27.6794 11.5775 27.6889 11.5969 27.6889 11.6171C27.6889 11.6401 27.6754 11.6617 27.6534 11.6698L27.691 11.7593H27.6383L27.6071 11.6789H27.5723V11.7593V11.7594ZM27.5723 11.6442H27.5984C27.6082 11.6442 27.6189 11.6449 27.6276 11.6402C27.6354 11.6352 27.6394 11.6257 27.6394 11.6167C27.639 11.6083 27.6348 11.6005 27.6279 11.5957C27.6197 11.5911 27.6062 11.5923 27.5974 11.5923H27.5722V11.6442H27.5723Z" fill="white"/>
</g>
<defs>
<clipPath id="clip0">
<rect width="31.2" height="20" fill="white" transform="translate(0.729004)"/>
</clipPath>
</defs>
</svg>
