<svg width="32" height="20" viewBox="0 0 32 20" fill="none" xmlns="http://www.w3.org/2000/svg">
<g clip-path="url(#clip0)">
<path d="M29.929 0H2.729C1.62443 0 0.729004 0.895431 0.729004 2V18C0.729004 19.1046 1.62443 20 2.729 20H29.929C31.0336 20 31.929 19.1046 31.929 18V2C31.929 0.895431 31.0336 0 29.929 0Z" fill="#008605"/>
<path d="M18.941 11.72C18.941 12.344 18.713 12.872 18.257 13.304C17.809 13.728 17.213 13.984 16.469 14.072V14.996C16.469 15.132 16.429 15.24 16.349 15.32C16.277 15.4 16.177 15.44 16.049 15.44C15.921 15.44 15.817 15.4 15.737 15.32C15.665 15.24 15.629 15.132 15.629 14.996V14.084C15.141 14.052 14.669 13.956 14.213 13.796C13.757 13.636 13.369 13.408 13.049 13.112C12.921 13.008 12.857 12.872 12.857 12.704C12.857 12.592 12.889 12.496 12.953 12.416C13.017 12.328 13.093 12.284 13.181 12.284C13.277 12.284 13.393 12.328 13.529 12.416C14.329 12.976 15.133 13.256 15.941 13.256C16.573 13.256 17.065 13.124 17.417 12.86C17.769 12.596 17.945 12.22 17.945 11.732C17.945 11.444 17.853 11.212 17.669 11.036C17.493 10.852 17.265 10.712 16.985 10.616C16.713 10.512 16.341 10.404 15.869 10.292C15.261 10.14 14.769 9.988 14.393 9.836C14.025 9.684 13.709 9.452 13.445 9.14C13.181 8.828 13.049 8.408 13.049 7.88C13.049 7.448 13.157 7.06 13.373 6.716C13.589 6.364 13.889 6.08 14.273 5.864C14.665 5.648 15.113 5.516 15.617 5.468V4.544C15.617 4.416 15.657 4.312 15.737 4.232C15.817 4.144 15.917 4.1 16.037 4.1C16.165 4.1 16.265 4.14 16.337 4.22C16.417 4.3 16.457 4.408 16.457 4.544V5.468C16.881 5.508 17.289 5.608 17.681 5.768C18.073 5.928 18.405 6.148 18.677 6.428C18.813 6.54 18.881 6.676 18.881 6.836C18.881 6.948 18.845 7.048 18.773 7.136C18.709 7.216 18.633 7.256 18.545 7.256C18.441 7.256 18.329 7.212 18.209 7.124C17.857 6.836 17.513 6.624 17.177 6.488C16.849 6.352 16.465 6.284 16.025 6.284C15.417 6.284 14.933 6.424 14.573 6.704C14.221 6.984 14.045 7.364 14.045 7.844C14.045 8.18 14.141 8.448 14.333 8.648C14.533 8.848 14.777 9.004 15.065 9.116C15.353 9.22 15.749 9.336 16.253 9.464C16.837 9.608 17.305 9.752 17.657 9.896C18.017 10.04 18.321 10.26 18.569 10.556C18.817 10.844 18.941 11.232 18.941 11.72Z" fill="white"/>
</g>
<defs>
<clipPath id="clip0">
<rect width="31.2" height="20" fill="white" transform="translate(0.729004)"/>
</clipPath>
</defs>
</svg>
