<svg width="32" height="20" viewBox="0 0 32 20" fill="none" xmlns="http://www.w3.org/2000/svg">
<g clip-path="url(#clip0)">
<path d="M29.8845 0H2.77344C1.66887 0 0.773438 0.895431 0.773438 2V18C0.773438 19.1046 1.66887 20 2.77344 20H29.8845C30.9891 20 31.8845 19.1046 31.8845 18V2C31.8845 0.895431 30.9891 0 29.8845 0Z" fill="#0E4595"/>
<path d="M12.468 13.9492L13.7987 6.11882H15.927L14.5954 13.9492H12.468ZM22.2844 6.28762C21.8628 6.12898 21.202 5.95874 20.377 5.95874C18.274 5.95874 16.7926 7.02074 16.78 8.54286C16.7681 9.66806 17.8376 10.2957 18.6448 10.6703C19.4733 11.0541 19.7517 11.2989 19.7478 11.6416C19.7426 12.1665 19.0862 12.4063 18.4745 12.4063C17.6227 12.4063 17.1702 12.2876 16.4712 11.9952L16.1969 11.8708L15.8982 13.6237C16.3953 13.8423 17.3146 14.0317 18.269 14.0415C20.5062 14.0415 21.9584 12.9916 21.975 11.3662C21.983 10.4754 21.416 9.79754 20.1881 9.23866C19.4442 8.87646 18.9886 8.6347 18.9935 8.26794C18.9935 7.94246 19.3791 7.59438 20.2123 7.59438C20.9082 7.58358 21.4124 7.73578 21.8052 7.89438L21.9959 7.98478L22.2844 6.28762ZM27.7611 6.1187H26.1166C25.6071 6.1187 25.2258 6.25818 25.0021 6.76806L21.8414 13.9441H24.0762C24.0762 13.9441 24.4416 12.9791 24.5242 12.7673C24.7685 12.7673 26.9395 12.7707 27.25 12.7707C27.3136 13.0448 27.5088 13.9441 27.5088 13.9441H29.4837L27.7611 6.11846V6.1187ZM25.1519 11.1751C25.3278 10.7239 25.9998 8.98618 25.9998 8.98618C25.9872 9.00706 26.1745 8.53282 26.282 8.23882L26.4258 8.91398C26.4258 8.91398 26.8334 10.7831 26.9185 11.1751H25.1519ZM10.6613 6.1187L8.57763 11.4587L8.35558 10.3735C7.96769 9.12258 6.75914 7.7673 5.40808 7.08878L7.31328 13.9368L9.56508 13.9342L12.9157 6.11862H10.6613" fill="white"/>
<path d="M6.63356 6.11839H3.20172L3.17456 6.28131C5.84445 6.92946 7.61108 8.49582 8.34459 10.3777L7.59832 6.7793C7.46949 6.28351 7.09588 6.13555 6.63364 6.11823" fill="#F2AE14"/>
</g>
<defs>
<clipPath id="clip0">
<rect width="31.1111" height="20" fill="white" transform="translate(0.773438)"/>
</clipPath>
</defs>
</svg>
